<?xml version="1.0" standalone="no"?>
<!DOCTYPE svg PUBLIC "-//W3C//DTD SVG 20010904//EN"
 "http://www.w3.org/TR/2001/REC-SVG-20010904/DTD/svg10.dtd">
<svg version="1.0" xmlns="http://www.w3.org/2000/svg"
 width="1280.000000pt" height="1280.000000pt" viewBox="0 0 1280.000000 1280.000000"
 preserveAspectRatio="xMidYMid meet">

<g transform="translate(0.000000,1280.000000) scale(0.100000,-0.100000)"
fill="#000000" stroke="none">
<path d="M11672 2506 c-1 -324 0 -587 2 -585 6 7 11 1030 5 1104 -3 39 -6
-195 -7 -519z"/>
<path d="M12696 3013 c-9 -9 -7 -33 3 -33 12 0 22 28 12 34 -5 3 -11 3 -15 -1z"/>
<path d="M12677 2813 c-4 -3 -7 -11 -7 -17 0 -6 5 -5 12 2 6 6 9 14 7 17 -3 3
-9 2 -12 -2z"/>
<path d="M12657 2773 c-4 -3 -7 -13 -7 -22 1 -13 3 -13 11 2 11 19 8 33 -4 20z"/>
<path d="M12631 2714 c0 -11 3 -14 6 -6 3 7 2 16 -1 19 -3 4 -6 -2 -5 -13z"/>
<path d="M10062 2413 l2 -308 6 290 c3 160 7 296 10 304 3 7 -1 16 -7 18 -10
4 -13 -60 -11 -304z"/>
<path d="M12584 2633 c-15 -32 -34 -66 -42 -75 -8 -9 -12 -23 -9 -30 3 -9 7
-7 13 7 4 11 10 22 14 25 12 9 63 121 57 126 -3 3 -17 -21 -33 -53z"/>
<path d="M12510 2488 c0 -19 2 -20 10 -8 13 19 13 30 0 30 -5 0 -10 -10 -10
-22z"/>
<path d="M12457 2391 c-24 -48 -21 -63 4 -22 11 18 18 38 16 44 -2 6 -11 -4
-20 -22z"/>
<path d="M12421 2314 c0 -11 3 -14 6 -6 3 7 2 16 -1 19 -3 4 -6 -2 -5 -13z"/>
<path d="M12385 2255 c-10 -20 -16 -38 -12 -41 3 -3 13 11 22 31 23 47 15 55
-10 10z"/>
<path d="M12347 2180 c-3 -11 -2 -20 3 -20 4 0 10 9 13 20 3 11 2 20 -3 20 -4
0 -10 -9 -13 -20z"/>
<path d="M12308 2104 c-14 -27 -37 -72 -51 -100 -15 -29 -27 -57 -27 -63 0 -6
-4 -11 -8 -11 -5 0 -16 -19 -27 -42 -10 -24 -21 -45 -24 -48 -4 -3 -30 -52
-60 -110 -61 -121 -104 -181 -146 -206 -25 -16 -27 -19 -11 -22 22 -5 88 57
115 108 10 19 28 52 40 73 11 21 21 44 21 51 0 8 3 16 8 18 6 3 22 33 107 198
30 60 37 73 72 139 13 24 22 48 20 54 -2 6 -15 -11 -29 -39z"/>
<path d="M6487 1984 c-11 -11 3 -24 18 -18 8 4 12 10 9 15 -6 11 -18 12 -27 3z"/>
<path d="M6728 1973 c7 -3 16 -2 19 1 4 3 -2 6 -13 5 -11 0 -14 -3 -6 -6z"/>
<path d="M9171 1614 c0 -11 3 -14 6 -6 3 7 2 16 -1 19 -3 4 -6 -2 -5 -13z"/>
<path d="M9133 1567 c-10 -12 -31 -32 -47 -45 -19 -14 -23 -22 -13 -22 18 0
87 62 87 79 0 16 -6 14 -27 -12z"/>
</g>
</svg>
